<svg xmlns="http://www.w3.org/2000/svg" width="219" height="219" viewBox="0.0 0.0 219.0 219.0"><g id="letter e"><path id="1" d="M 107.388,183.504 C 106.087,183.434 104.680,183.293 104.262,183.191 C 103.843,183.088 102.414,182.927 101.085,182.833 C 99.430,182.715 98.392,182.556 97.790,182.326 C 97.307,182.141 96.240,181.913 95.419,181.819 C 94.556,181.721 93.642,181.503 93.248,181.302 C 92.874,181.111 92.100,180.880 91.529,180.789 C 90.957,180.697 90.095,180.437 89.613,180.209 C 89.131,179.982 88.590,179.796 88.412,179.796 C 88.233,179.796 87.677,179.579 87.176,179.314 C 86.675,179.048 85.988,178.780 85.648,178.718 C 85.309,178.655 84.853,178.466 84.635,178.296 C 84.416,178.126 83.961,177.897 83.624,177.787 C 83.287,177.677 82.883,177.445 82.726,177.272 C 82.569,177.099 82.188,176.910 81.878,176.851 C 81.569,176.793 81.031,176.520 80.683,176.243 C 80.335,175.967 79.977,175.741 79.887,175.741 C 79.797,175.741 79.446,175.523 79.108,175.256 C 78.769,174.990 78.331,174.722 78.134,174.661 C 77.937,174.599 77.640,174.399 77.474,174.216 C 77.308,174.032 77.087,173.882 76.983,173.882 C 76.878,173.882 76.557,173.673 76.269,173.417 C 75.981,173.162 75.088,172.420 74.284,171.770 C 71.540,169.547 67.190,164.852 66.097,162.934 C 65.556,161.983 65.137,161.338 64.678,160.747 C 64.422,160.417 64.212,160.063 64.210,159.960 C 64.208,159.856 63.980,159.437 63.703,159.028 C 63.426,158.620 63.198,158.163 63.196,158.015 C 63.194,157.866 62.966,157.410 62.689,157.001 C 62.412,156.592 62.185,156.124 62.185,155.962 C 62.185,155.799 61.957,155.233 61.678,154.703 C 61.399,154.172 61.171,153.575 61.171,153.375 C 61.171,153.174 60.984,152.659 60.756,152.230 C 60.527,151.801 60.267,151.003 60.178,150.457 C 60.088,149.911 59.861,149.122 59.674,148.703 C 59.487,148.284 59.256,147.334 59.162,146.591 C 59.068,145.848 58.817,144.555 58.604,143.719 C 58.227,142.240 58.216,141.980 58.215,134.256 C 58.214,126.538 58.225,126.271 58.600,124.798 C 58.812,123.964 59.062,122.538 59.156,121.629 C 59.253,120.677 59.474,119.635 59.675,119.173 C 59.867,118.732 60.094,117.778 60.178,117.052 C 60.267,116.278 60.494,115.405 60.727,114.940 C 60.945,114.504 61.174,113.816 61.237,113.412 C 61.299,113.008 61.537,112.325 61.767,111.893 C 61.997,111.461 62.185,110.909 62.185,110.666 C 62.185,110.423 62.413,109.796 62.692,109.274 C 62.971,108.751 63.200,108.189 63.202,108.025 C 63.203,107.860 63.430,107.345 63.706,106.881 C 63.982,106.416 64.209,105.930 64.210,105.801 C 64.213,105.595 64.897,104.151 66.214,101.573 C 66.432,101.146 66.708,100.683 66.828,100.544 C 66.948,100.405 67.102,100.100 67.170,99.868 C 67.238,99.636 67.468,99.213 67.681,98.928 C 67.894,98.643 68.189,98.149 68.337,97.829 C 68.484,97.510 68.984,96.717 69.448,96.066 C 69.911,95.415 70.292,94.827 70.293,94.758 C 70.295,94.690 70.658,94.167 71.099,93.596 C 72.124,92.273 72.745,91.444 73.114,90.912 C 73.760,89.978 78.607,84.589 79.635,83.662 C 79.800,83.514 80.186,83.164 80.494,82.885 C 80.802,82.607 81.897,81.656 82.926,80.773 C 84.714,79.239 85.300,78.786 86.434,78.059 C 86.713,77.880 87.283,77.467 87.701,77.141 C 88.120,76.815 88.652,76.458 88.884,76.347 C 89.117,76.237 89.483,75.990 89.699,75.800 C 90.092,75.453 90.755,75.077 92.355,74.296 C 92.824,74.068 93.308,73.758 93.432,73.609 C 93.556,73.460 93.788,73.338 93.949,73.338 C 94.110,73.338 94.549,73.115 94.926,72.842 C 95.303,72.569 95.885,72.294 96.220,72.231 C 96.555,72.168 97.021,71.966 97.256,71.781 C 97.491,71.597 98.068,71.344 98.539,71.220 C 99.010,71.095 99.521,70.881 99.674,70.744 C 99.827,70.606 100.437,70.369 101.030,70.216 C 101.623,70.063 102.281,69.825 102.492,69.686 C 102.704,69.548 103.389,69.354 104.014,69.257 C 104.640,69.160 105.477,68.907 105.875,68.696 C 106.339,68.449 107.064,68.267 107.901,68.189 C 108.618,68.122 109.632,67.918 110.155,67.735 C 110.780,67.518 112.113,67.321 114.046,67.162 C 115.663,67.028 117.982,66.797 119.200,66.648 C 121.061,66.420 121.749,66.408 123.525,66.573 C 124.687,66.680 125.944,66.837 126.318,66.919 C 126.692,67.002 127.833,67.120 128.853,67.182 C 130.102,67.257 131.093,67.423 131.890,67.691 C 132.541,67.910 133.529,68.140 134.087,68.202 C 134.644,68.265 135.443,68.487 135.861,68.695 C 136.279,68.903 136.964,69.126 137.382,69.193 C 137.800,69.259 138.418,69.491 138.755,69.708 C 139.092,69.926 139.645,70.156 139.986,70.220 C 140.326,70.284 140.857,70.508 141.167,70.718 C 141.476,70.928 141.997,71.188 142.323,71.296 C 142.650,71.404 143.052,71.641 143.218,71.824 C 143.383,72.006 143.639,72.155 143.787,72.155 C 144.027,72.156 144.944,72.710 146.642,73.883 C 147.895,74.748 150.213,76.686 151.335,77.806 C 152.502,78.972 154.787,81.668 154.787,81.880 C 154.787,81.939 154.942,82.189 155.132,82.436 C 155.752,83.245 156.621,84.652 156.739,85.040 C 156.803,85.249 156.956,85.536 157.080,85.677 C 157.337,85.972 158.255,88.091 158.614,89.222 C 158.747,89.640 158.938,90.211 159.038,90.490 C 159.523,91.844 159.681,92.542 160.049,94.968 C 160.486,97.842 160.537,100.707 160.197,103.248 C 160.091,104.038 159.899,105.496 159.771,106.488 C 159.640,107.504 159.395,108.574 159.211,108.938 C 159.030,109.294 158.831,109.927 158.768,110.345 C 158.665,111.025 158.119,112.375 157.366,113.809 C 156.464,115.528 156.256,115.895 155.885,116.428 C 155.659,116.754 155.300,117.276 155.088,117.590 C 154.876,117.904 154.543,118.322 154.347,118.519 C 154.151,118.717 153.678,119.242 153.294,119.687 C 152.134,121.034 148.029,124.354 147.078,124.716 C 146.850,124.803 146.382,125.065 146.039,125.298 C 145.695,125.531 145.299,125.723 145.158,125.723 C 145.017,125.723 144.559,125.951 144.141,126.229 C 143.723,126.507 143.267,126.736 143.127,126.738 C 142.988,126.741 142.539,126.969 142.130,127.246 C 141.721,127.523 141.245,127.750 141.071,127.750 C 140.897,127.750 140.328,127.978 139.805,128.257 C 139.283,128.536 138.656,128.764 138.413,128.764 C 138.170,128.764 137.629,128.945 137.212,129.165 C 136.794,129.386 136.060,129.650 135.580,129.752 C 135.100,129.854 134.416,130.089 134.059,130.275 C 133.703,130.460 132.875,130.688 132.219,130.781 C 131.564,130.874 130.690,131.097 130.276,131.278 C 129.863,131.458 128.985,131.687 128.327,131.787 C 127.668,131.887 126.794,132.116 126.384,132.297 C 125.973,132.477 125.067,132.678 124.370,132.742 C 123.673,132.807 122.602,133.032 121.990,133.242 C 121.378,133.452 120.313,133.679 119.624,133.747 C 118.935,133.814 117.864,134.044 117.244,134.259 C 116.624,134.473 115.597,134.703 114.963,134.769 C 114.328,134.835 113.353,135.059 112.795,135.266 C 112.238,135.474 111.357,135.697 110.838,135.761 C 110.319,135.826 109.541,136.057 109.110,136.276 C 108.678,136.494 107.946,136.725 107.484,136.789 C 107.022,136.852 106.554,137.013 106.445,137.145 C 106.335,137.277 105.818,137.507 105.296,137.656 C 104.773,137.805 104.194,138.061 104.008,138.226 C 103.822,138.390 103.328,138.678 102.910,138.865 C 102.028,139.261 100.059,140.941 99.721,141.587 C 99.593,141.830 99.345,142.187 99.170,142.380 C 98.994,142.573 98.618,143.447 98.333,144.323 C 97.850,145.811 97.824,146.021 97.934,147.521 C 97.998,148.404 98.153,149.328 98.279,149.574 C 98.404,149.820 98.589,150.390 98.689,150.841 C 98.789,151.292 99.071,151.965 99.314,152.337 C 99.558,152.709 99.940,153.292 100.164,153.632 C 100.669,154.403 102.469,156.109 103.253,156.561 C 105.314,157.750 105.973,158.064 106.847,158.271 C 107.386,158.400 108.065,158.628 108.355,158.778 C 109.732,159.490 120.418,159.433 122.629,158.702 C 123.204,158.512 124.217,158.281 124.878,158.189 C 125.540,158.097 126.265,157.902 126.489,157.756 C 126.713,157.609 127.301,157.383 127.796,157.254 C 128.291,157.125 128.959,156.860 129.279,156.664 C 129.600,156.469 129.984,156.309 130.133,156.309 C 130.281,156.308 130.738,156.081 131.147,155.804 C 131.555,155.527 132.013,155.299 132.162,155.297 C 132.312,155.295 132.718,155.069 133.064,154.794 C 133.411,154.519 133.859,154.242 134.059,154.178 C 134.260,154.115 134.577,153.926 134.763,153.758 C 135.160,153.400 137.759,151.243 138.457,150.691 C 138.723,150.481 140.358,148.930 142.090,147.245 C 146.937,142.530 148.545,141.100 148.999,141.100 C 149.150,141.100 149.440,140.943 149.644,140.752 C 150.243,140.188 152.802,139.846 154.614,140.086 C 155.897,140.257 156.179,140.363 157.195,141.056 C 157.822,141.485 158.336,141.879 158.336,141.932 C 158.337,141.985 158.627,142.411 158.981,142.879 C 159.740,143.878 160.027,145.041 160.022,147.084 C 160.017,149.106 159.593,151.852 159.107,153.013 C 158.873,153.570 158.680,154.135 158.678,154.267 C 158.674,154.505 157.864,156.339 157.404,157.153 C 157.272,157.385 156.984,157.955 156.764,158.420 C 156.543,158.885 156.236,159.369 156.082,159.497 C 155.927,159.624 155.801,159.823 155.801,159.938 C 155.801,160.053 155.536,160.481 155.211,160.889 C 154.887,161.297 154.621,161.723 154.620,161.835 C 154.619,161.947 154.427,162.252 154.194,162.511 C 153.960,162.770 153.340,163.515 152.816,164.166 C 150.995,166.424 146.809,170.453 144.564,172.109 C 144.378,172.246 143.891,172.606 143.482,172.909 C 141.699,174.230 139.135,175.824 137.427,176.674 C 136.941,176.916 136.503,177.180 136.454,177.259 C 136.405,177.339 136.004,177.538 135.564,177.702 C 135.123,177.866 134.584,178.137 134.365,178.303 C 134.147,178.469 133.691,178.653 133.352,178.712 C 133.012,178.771 132.469,178.997 132.144,179.215 C 131.818,179.432 131.174,179.694 130.713,179.797 C 130.251,179.899 129.643,180.125 129.361,180.297 C 129.079,180.470 128.398,180.694 127.848,180.795 C 127.297,180.896 126.659,181.102 126.429,181.252 C 126.199,181.403 125.290,181.627 124.410,181.750 C 123.530,181.873 122.551,182.096 122.235,182.246 C 121.527,182.582 120.038,182.836 118.767,182.837 C 118.240,182.837 117.214,182.954 116.485,183.095 C 115.331,183.319 110.716,183.716 110.007,183.653 C 109.868,183.641 108.689,183.574 107.388,183.504M 108.148,121.701 C 108.659,121.524 109.568,121.324 110.166,121.257 C 110.806,121.186 111.538,120.973 111.941,120.741 C 112.318,120.525 112.942,120.297 113.328,120.235 C 113.714,120.173 114.280,119.937 114.586,119.711 C 114.892,119.486 115.231,119.301 115.339,119.301 C 115.447,119.301 115.832,119.100 116.193,118.855 C 116.555,118.610 117.078,118.331 117.357,118.237 C 117.636,118.142 118.080,117.886 118.342,117.669 C 118.605,117.451 118.962,117.273 119.135,117.273 C 119.308,117.273 119.498,117.195 119.557,117.100 C 119.663,116.928 121.293,115.649 121.814,115.330 C 123.641,114.208 129.271,108.693 129.271,108.023 C 129.271,107.942 129.727,107.276 130.285,106.543 C 130.842,105.810 131.299,105.121 131.299,105.012 C 131.299,104.903 131.459,104.610 131.656,104.360 C 131.852,104.110 132.116,103.564 132.242,103.146 C 132.367,102.728 132.615,102.181 132.792,101.930 C 132.968,101.679 133.168,101.017 133.236,100.459 C 133.304,99.902 133.471,99.141 133.608,98.770 C 133.745,98.398 133.897,97.371 133.944,96.488 C 134.020,95.074 133.978,94.726 133.594,93.568 C 133.354,92.845 133.157,92.095 133.157,91.902 C 133.157,91.460 132.548,90.670 131.077,89.205 C 129.804,87.938 128.035,86.942 126.736,86.761 C 126.318,86.703 125.405,86.498 124.708,86.306 C 122.901,85.807 119.505,85.809 117.949,86.309 C 117.345,86.503 116.395,86.713 115.837,86.776 C 115.253,86.843 114.531,87.063 114.133,87.296 C 113.752,87.519 113.288,87.701 113.100,87.701 C 112.912,87.701 112.476,87.893 112.132,88.126 C 111.788,88.360 111.264,88.664 110.968,88.803 C 110.432,89.055 109.650,89.567 108.801,90.223 C 108.556,90.413 108.176,90.637 107.956,90.722 C 107.737,90.807 106.720,91.657 105.698,92.611 C 104.075,94.126 103.485,94.785 102.103,96.623 C 101.943,96.837 101.612,97.255 101.369,97.553 C 100.939,98.080 100.431,98.943 99.821,100.186 C 99.656,100.522 99.445,100.912 99.352,101.051 C 99.260,101.190 99.032,101.647 98.846,102.065 C 98.661,102.483 98.368,103.091 98.195,103.417 C 98.023,103.742 97.826,104.350 97.757,104.769 C 97.689,105.187 97.455,105.956 97.237,106.479 C 96.812,107.496 96.319,111.001 96.319,113.001 C 96.319,114.742 96.797,117.263 97.265,117.988 C 97.488,118.334 97.672,118.677 97.674,118.748 C 97.677,118.936 98.830,120.088 99.580,120.652 C 99.933,120.918 100.616,121.220 101.099,121.323 C 101.581,121.427 102.137,121.617 102.333,121.745 C 102.834,122.073 103.579,122.152 105.529,122.082 C 106.610,122.044 107.553,121.906 108.148,121.701" stroke="#355F71" fill="#355F71" stroke-width="1" />
  </g><g id="blue accent"><path id="2" d="M 63.199,74.542 C 62.967,74.483 62.451,74.262 62.054,74.050 C 61.475,73.741 61.247,73.475 60.913,72.720 C 60.413,71.589 60.396,71.146 60.808,69.943 C 60.980,69.440 61.177,68.725 61.245,68.353 C 61.313,67.981 61.469,67.563 61.592,67.424 C 61.715,67.284 61.994,66.820 62.212,66.392 C 62.936,64.967 63.571,64.109 65.954,61.329 C 68.106,58.819 71.393,55.492 72.085,55.125 C 72.310,55.006 72.493,54.836 72.493,54.748 C 72.493,54.660 72.778,54.439 73.127,54.257 C 73.475,54.075 74.483,53.276 75.366,52.481 C 77.461,50.594 77.471,50.586 77.930,50.344 C 78.146,50.231 78.741,49.785 79.252,49.355 C 80.660,48.168 81.829,47.285 83.222,46.357 C 83.594,46.109 84.339,45.539 84.879,45.090 C 85.418,44.641 85.914,44.273 85.979,44.273 C 86.044,44.273 86.705,43.819 87.449,43.263 C 88.192,42.708 88.886,42.251 88.990,42.249 C 89.095,42.247 89.272,42.135 89.384,42 C 89.496,41.866 89.981,41.521 90.461,41.236 C 91.526,40.603 92.622,39.888 95.538,37.925 C 97.069,36.895 97.473,36.644 97.998,36.401 C 98.318,36.252 98.812,35.957 99.097,35.744 C 99.382,35.531 99.805,35.301 100.037,35.233 C 100.269,35.165 100.613,34.970 100.800,34.799 C 100.987,34.628 101.411,34.375 101.743,34.236 C 102.074,34.098 102.437,33.875 102.549,33.740 C 102.660,33.605 102.997,33.396 103.296,33.276 C 103.594,33.155 104.074,32.881 104.362,32.666 C 104.650,32.451 104.992,32.274 105.122,32.272 C 105.253,32.271 105.695,32.043 106.103,31.765 C 106.512,31.488 106.949,31.262 107.073,31.262 C 107.197,31.262 107.800,30.995 108.413,30.670 C 109.027,30.345 109.626,30.079 109.745,30.079 C 109.864,30.079 110.143,29.938 110.364,29.765 C 110.586,29.593 111.072,29.355 111.443,29.237 C 111.815,29.119 112.240,28.917 112.387,28.789 C 112.534,28.661 113.028,28.432 113.485,28.280 C 113.942,28.128 114.433,27.903 114.577,27.780 C 114.720,27.656 115.329,27.429 115.929,27.276 C 116.529,27.123 117.212,26.861 117.448,26.694 C 117.683,26.527 118.178,26.337 118.546,26.272 C 118.915,26.208 119.483,26.001 119.808,25.813 C 120.133,25.625 120.853,25.364 121.407,25.234 C 121.961,25.103 122.539,24.884 122.691,24.746 C 122.843,24.608 123.552,24.384 124.265,24.247 C 124.979,24.111 125.793,23.880 126.076,23.734 C 126.358,23.588 127.287,23.363 128.141,23.234 C 128.995,23.105 130.035,22.869 130.454,22.709 C 131.606,22.268 137.991,22.157 139.072,22.558 C 139.490,22.713 140.326,22.998 140.931,23.191 C 141.535,23.383 142.210,23.681 142.432,23.853 C 142.654,24.024 142.936,24.164 143.060,24.164 C 143.414,24.164 146.169,26.610 146.894,27.568 C 147.902,28.899 148.402,30.490 148.485,32.624 C 148.539,34.002 148.491,34.581 148.276,35.159 C 148.122,35.571 147.897,36.251 147.777,36.669 C 147.341,38.179 145.163,40.846 143.293,42.161 C 142.896,42.440 142.271,42.915 141.904,43.217 C 141.537,43.519 141.122,43.766 140.981,43.766 C 140.841,43.766 140.500,43.956 140.224,44.189 C 139.948,44.421 139.518,44.658 139.270,44.716 C 139.022,44.773 138.512,44.995 138.137,45.208 C 137.763,45.421 137.173,45.649 136.826,45.714 C 136.480,45.779 136.009,45.979 135.782,46.158 C 135.554,46.337 134.967,46.603 134.477,46.749 C 133.988,46.894 133.407,47.155 133.186,47.328 C 132.966,47.502 132.508,47.692 132.169,47.751 C 131.830,47.809 131.269,48.040 130.922,48.262 C 130.575,48.485 130.111,48.667 129.890,48.667 C 129.668,48.667 129.078,48.885 128.576,49.152 C 128.075,49.419 127.399,49.694 127.074,49.764 C 126.749,49.833 126.178,50.064 125.807,50.276 C 125.435,50.488 124.812,50.713 124.422,50.776 C 124.033,50.839 123.624,50.999 123.513,51.132 C 123.403,51.265 122.885,51.497 122.363,51.647 C 121.840,51.797 121.109,52.092 120.737,52.302 C 120.366,52.512 119.766,52.736 119.405,52.800 C 119.043,52.863 118.549,53.059 118.306,53.235 C 118.063,53.411 117.492,53.637 117.037,53.737 C 116.582,53.836 116.011,54.055 115.770,54.224 C 115.528,54.392 114.979,54.616 114.551,54.721 C 114.122,54.826 113.437,55.103 113.030,55.336 C 112.622,55.569 112.143,55.761 111.965,55.762 C 111.787,55.763 111.331,55.945 110.951,56.166 C 110.571,56.387 109.994,56.625 109.669,56.695 C 109.344,56.764 108.668,57.040 108.167,57.307 C 107.666,57.573 107.094,57.792 106.896,57.792 C 106.698,57.792 106.271,57.972 105.947,58.192 C 105.623,58.413 105.037,58.647 104.646,58.713 C 104.254,58.780 103.759,58.971 103.545,59.140 C 103.331,59.308 102.751,59.565 102.258,59.712 C 101.764,59.859 101.119,60.124 100.825,60.301 C 100.531,60.478 100.013,60.673 99.674,60.733 C 99.335,60.793 98.875,60.986 98.651,61.162 C 98.428,61.338 97.816,61.593 97.292,61.730 C 96.768,61.867 96.114,62.139 95.839,62.336 C 95.563,62.532 95.196,62.692 95.024,62.692 C 94.851,62.692 94.254,62.912 93.698,63.181 C 93.141,63.449 92.449,63.719 92.158,63.781 C 91.867,63.842 91.377,64.079 91.069,64.306 C 90.761,64.534 90.352,64.721 90.161,64.723 C 89.970,64.724 89.433,64.951 88.969,65.227 C 88.504,65.502 87.925,65.729 87.683,65.731 C 87.440,65.732 86.973,65.916 86.644,66.139 C 86.315,66.362 85.886,66.596 85.690,66.658 C 85.494,66.720 85.123,66.948 84.865,67.165 C 84.608,67.382 84.086,67.643 83.705,67.746 C 83.325,67.848 82.833,68.074 82.612,68.247 C 82.391,68.420 81.966,68.616 81.668,68.681 C 81.370,68.746 80.931,68.953 80.691,69.142 C 80.451,69.331 79.896,69.580 79.458,69.696 C 79.019,69.813 78.365,70.109 78.004,70.356 C 77.642,70.602 77.208,70.803 77.040,70.803 C 76.871,70.803 76.466,70.984 76.140,71.206 C 75.814,71.427 75.207,71.659 74.792,71.721 C 74.377,71.783 73.855,71.978 73.631,72.154 C 73.407,72.330 72.850,72.564 72.394,72.674 C 71.937,72.783 71.298,73.025 70.972,73.210 C 70.617,73.413 69.705,73.638 68.691,73.774 C 67.730,73.902 66.713,74.149 66.332,74.345 C 65.656,74.693 64.162,74.787 63.199,74.542" stroke="#69B5D8" fill="#69B5D8" stroke-width="1" />
</g></svg>